<?xml version="1.0" encoding="utf-8"?>
<!-- Generator: Adobe Illustrator 16.0.0, SVG Export Plug-In . SVG Version: 6.00 Build 0)  -->
<!DOCTYPE svg PUBLIC "-//W3C//DTD SVG 1.1//EN" "http://www.w3.org/Graphics/SVG/1.1/DTD/svg11.dtd">
<svg version="1.1" id="Layer_1" xmlns="http://www.w3.org/2000/svg" xmlns:xlink="http://www.w3.org/1999/xlink" x="0px" y="0px"
	 width="25px" height="25px" viewBox="0 0 256 256" enable-background="new 0 0 256 256" xml:space="preserve">
<path fill="darkslategrey" stroke="darkslategrey" stroke-width="7" stroke-miterlimit="10" d="M239.5,91.693c0-7.346-3.349-11.193-9.172-11.193
	H29.125c-5.822,0-11.625,3.848-11.625,11.193v116.383c0,7.346,5.803,14.424,11.625,14.424h201.203c5.823,0,9.172-7.078,9.172-14.424
	V91.693z"/>
<path fill="#FFFFFF" d="M48,102.595c0-4.932-1.534-8.93-4-8.93l0,0c-2.466,0-4,3.998-4,8.93v96.812c0,4.932,1.534,8.929,4,8.929l0,0
	c2.466,0,4-3.997,4-8.929V102.595z"/>
<path fill="#FFFFFF" d="M219,102.595c0-4.932-1.535-8.93-4-8.93l0,0c-2.466,0-4,3.998-4,8.93v96.812c0,4.932,1.534,8.929,4,8.929
	l0,0c2.465,0,4-3.997,4-8.929V102.595z"/>
<path fill="none" stroke="darkslategrey" stroke-width="22" stroke-miterlimit="10" d="M172,79V48.052c0-3.618-19.87-6.552-44.5-6.552l0,0
	c-24.629,0-44.5,2.934-44.5,6.552V79"/>
</svg>
